#!OML:ASF F:\twosubjects\two\Thursday\Session 1\justin.ASF
:FULLY-SPECIFIED
:DEGREES
501
root 4.30851 17.1668 -7.61769 11.7082 -10.035 4.10993
lowerback 8.02225 -3.05263 -5.78591
upperback 2.96683 -4.44391 2.98947
thorax -0.715451 -2.29072 6.73044
lowerneck -9.54649 -14.6233 -17.1435
upperneck -5.24483 -18.1899 21.0161
head 3.63754 -8.65422 7.61269
rclavicle -7.7526e-015 -2.62396e-014
rhumerus -53.7581 -30.8431 -44.6379
rradius 33.1225
rwrist 3.45636
rhand -29.569 14.014
rfingers 7.12502
rthumb -2.90126 -15.946
lclavicle -7.7526e-015 -2.62396e-014
lhumerus -36.0415 25.0731 51.5449
lradius 35.5485
lwrist -8.91563
lhand -12.7244 45.4601
lfingers 7.12502
lthumb 13.3589 75.0119
rfemur -42.8711 -8.98436 5.22625
rtibia 37.008
rfoot -6.73758 -16.5974
rtoes -3.45335
lfemur -2.36937 6.70522 -17.9523
ltibia 16.4395
lfoot -18.9093 14.6696
ltoes -24.3085
502
root 4.28684 17.1582 -7.58567 11.706 -10.5186 4.21498
lowerback 7.90167 -3.13436 -5.95196
upperback 2.78525 -4.56079 3.04022
thorax -0.801392 -2.34246 6.88478
lowerneck -9.95871 -14.6033 -16.965
upperneck -4.73746 -18.1741 20.7984
head 3.80572 -8.61492 7.48407
rclavicle 1.25234e-014 -3.97569e-015
rhumerus -52.6188 -30.4788 -45.8738
rradius 33.2582
rwrist 3.71559
rhand -29.1011 15.6359
rfingers 7.12502
rthumb -2.44939 -14.3298
lclavicle 1.25234e-014 -3.97569e-015
lhumerus -35.2034 25.3648 52.6379
lradius 35.4047
lwrist -8.60088
lhand -12.3477 45.6033
lfingers 7.12502
lthumb 13.722 75.1309
rfemur -43.0569 -9.44267 5.43827
rtibia 37.1047
rfoot -6.54935 -16.4527
rtoes -3.61165
lfemur -1.98474 6.48624 -18.1276
ltibia 16.1095
lfoot -18.5574 15.2637
ltoes -24.3519
503
root 4.26354 17.1511 -7.54378 11.7302 -11.0574 4.22801
lowerback 7.62188 -3.20885 -6.00629
upperback 2.62383 -4.65158 3.08945
thorax -0.791345 -2.38458 6.95924
lowerneck -10.7833 -14.6117 -16.7707
upperneck -3.63441 -18.2034 20.3831
head 4.19788 -8.56201 7.24612
rclavicle 1.98785e-016 -2.14687e-014
rhumerus -51.3048 -30.0698 -47.3502
rradius 33.7111
rwrist 3.88905
rhand -28.3985 15.869
rfingers 7.12502
rthumb -1.77075 -14.1034
lclavicle 1.98785e-016 -2.14687e-014
lhumerus -34.4317 25.7552 53.649
lradius 35.2537
lwrist -8.4864
lhand -11.805 45.6492
lfingers 7.12502
lthumb 14.2449 75.1407
rfemur -43.3058 -10.0787 5.89433
rtibia 37.2241
rfoot -5.94943 -16.2743
rtoes -2.92241
lfemur -1.55775 6.29552 -18.2068
ltibia 15.7747
lfoot -18.3694 15.7162
ltoes -24.7141
504
root 4.23184 17.1494 -7.50398 11.7303 -11.6545 4.07603
lowerback 7.53845 -3.20211 -5.88861
upperback 2.34777 -4.63229 3.11408
thorax -1.04422 -2.35599 6.92367
lowerneck -10.069 -14.3081 -17.1262
upperneck -3.95075 -17.8588 21.1035
head 4.05477 -8.42384 7.6284
rclavicle -2.82274e-014 -3.18055e-015
rhumerus -50.4462 -29.3053 -48.8297
rradius 34.5228
rwrist 3.37593
rhand -27.1873 15.5856
rfingers 7.12502
rthumb -0.600967 -14.3933
lclavicle -2.82274e-014 -3.18055e-015
lhumerus -33.7804 25.7927 54.6485
lradius 35.187
lwrist -8.64822
lhand -11.4218 45.4523
lfingers 7.12502
lthumb 14.6141 74.9174
rfemur -43.5588 -10.4904 6.5488
rtibia 37.3489
rfoot -5.07079 -16.1944
rtoes -3.75142
lfemur -1.1799 6.01475 -18.0942
ltibia 15.5626
lfoot -18.3379 16.2501
ltoes -24.8876
505
root 4.19842 17.1406 -7.46483 11.7196 -12.2047 4.11492
lowerback 7.48115 -3.14857 -5.84991
upperback 2.08391 -4.55919 3.03282
thorax -1.30976 -2.29995 6.81909
lowerneck -9.94269 -14.1954 -17.1768
upperneck -3.78248 -17.763 21.428
head 4.11358 -8.37236 7.75657
rclavicle -1.5704e-014 -3.18055e-015
rhumerus -49.863 -28.8804 -50.0351
rradius 35.1349
rwrist 2.94657
rhand -25.8199 15.7592
rfingers 7.12502
rthumb 0.719708 -14.2194
lclavicle -1.5704e-014 -3.18055e-015
lhumerus -33.0212 25.4053 55.8561
lradius 35.2822
lwrist -8.60931
lhand -11.1959 44.7678
lfingers 7.12502
lthumb 14.8318 74.217
rfemur -43.7652 -10.8003 6.8775
rtibia 37.4749
rfoot -4.14954 -16.2439
rtoes -5.6671
lfemur -0.91676 5.79056 -18.182
ltibia 15.4956
lfoot -18.1692 16.9048
ltoes -25.6523
506
root 4.16393 17.1351 -7.42444 11.706 -12.819 4.26913
lowerback 7.28371 -3.09767 -6.03129
upperback 1.95946 -4.49762 2.98554
thorax -1.32911 -2.26473 6.85935
lowerneck -10.7467 -14.2855 -17.082
upperneck -2.86872 -17.9045 21.3761
head 4.52421 -8.36957 7.63547
rclavicle -5.32743e-014 3.49861e-014
rhumerus -48.8633 -27.8044 -51.8854
rradius 36.0837
rwrist 1.91814
rhand -24.6089 15.5483
rfingers 7.12502
rthumb 1.88927 -14.4231
lclavicle -5.32743e-014 3.49861e-014
lhumerus -32.1478 25.2133 57.2037
lradius 35.3095
lwrist -8.5332
lhand -11.2125 44.0316
lfingers 7.12502
lthumb 14.8158 73.482
rfemur -43.9516 -11.0255 7.03441
rtibia 37.591
rfoot -3.45774 -16.3133
rtoes -7.14926
lfemur -0.635312 5.95901 -18.364
ltibia 15.3801
lfoot -17.8909 17.1505
ltoes -26.8035
507
root 4.12743 17.1419 -7.37902 11.56 -13.4934 4.35275
lowerback 7.11376 -3.0952 -6.2236
upperback 1.92093 -4.50037 2.99568
thorax -1.25803 -2.26851 6.96871
lowerneck -11.3219 -14.2489 -17.0898
upperneck -2.24067 -17.8623 21.4081
head 4.80123 -8.29547 7.60963
rclavicle -9.97899e-014 2.54444e-014
rhumerus -47.6645 -25.6185 -54.3331
rradius 37.462
rwrist -0.156221
rhand -23.558 15.0927
rfingers 7.12502
rthumb 2.9042 -14.8672
lclavicle -9.97899e-014 2.54444e-014
lhumerus -31.2389 25.3452 58.4645
lradius 35.1645
lwrist -8.58952
lhand -11.0375 43.6865
lfingers 7.12502
lthumb 14.9843 73.1243
rfemur -44.0143 -11.235 7.28676
rtibia 37.7646
rfoot -3.24484 -16.2508
rtoes -8.22841
lfemur -0.122494 6.18213 -18.4512
ltibia 15.2727
lfoot -17.4624 17.21
ltoes -26.9695
508
root 4.08661 17.1548 -7.33775 11.2923 -14.2436 4.42858
lowerback 7.15599 -3.04705 -6.4226
upperback 1.86821 -4.45514 2.93636
thorax -1.33302 -2.24107 7.02202
lowerneck -11.2934 -14.1148 -16.9053
upperneck -2.16368 -17.7243 21.4649
head 4.786 -8.22733 7.62511
rclavicle -3.57812e-015 -3.18055e-015
rhumerus -46.5191 -24.4814 -56.0965
rradius 38.0026
rwrist -1.23036
rhand -22.7882 15.4583
rfingers 7.12502
rthumb 3.64768 -14.4902
lclavicle -3.57812e-015 -3.18055e-015
lhumerus -30.4321 25.2757 59.6165
lradius 35.2427
lwrist -8.65549
lhand -10.4897 43.7326
lfingers 7.12502
lthumb 15.512 73.1304
rfemur -43.9635 -11.1441 7.44603
rtibia 37.9251
rfoot -3.22528 -16.3125
rtoes -8.58059
lfemur 0.511304 6.02492 -18.5503
ltibia 15.2152
lfoot -17.0038 17.6612
ltoes -27.0879
509
root 4.03885 17.1595 -7.30201 11.0738 -14.9907 4.4828
lowerback 7.26163 -2.98147 -6.71042
upperback 1.72406 -4.39789 2.92076
thorax -1.53047 -2.19928 7.18038
lowerneck -11.4198 -14.0162 -16.7766
upperneck -1.7925 -17.6552 21.5878
head 4.90971 -8.17158 7.64409
rclavicle 5.74488e-014 -3.81667e-014
rhumerus -45.4809 -23.9825 -57.4154
rradius 38.151
rwrist -1.2194
rhand -22.4468 16.3633
rfingers 7.12502
rthumb 3.97734 -13.5793
lclavicle 5.74488e-014 -3.81667e-014
lhumerus -29.8781 24.5813 60.9267
lradius 35.5086
lwrist -8.50533
lhand -10.161 44.2792
lfingers 7.12502
lthumb 15.8286 73.6521
rfemur -43.9652 -10.7983 7.54679
rtibia 38.0426
rfoot -3.26476 -16.455
rtoes -7.84086
lfemur 1.05539 5.87045 -18.5579
ltibia 15.1489
lfoot -16.1883 18.0619
ltoes -29.2075
510
root 3.98915 17.1692 -7.25173 11.0384 -15.6751 4.21145
lowerback 7.15677 -3.01262 -6.60872
upperback 1.5582 -4.42632 3.03386
thorax -1.63921 -2.20428 7.24414
lowerneck -11.9553 -13.9235 -16.8909
upperneck -0.960609 -17.5775 21.7542
head 5.26349 -8.06949 7.68771
rclavicle 4.63168e-014 1.66979e-014
rhumerus -44.5372 -22.9792 -58.906
rradius 38.6055
rwrist -1.29738
rhand -22.3303 17.2962
rfingers 7.12502
rthumb 4.0898 -12.6443
lclavicle 4.63168e-014 1.66979e-014
lhumerus -29.3696 23.7003 62.2954
lradius 35.4736
lwrist -8.18179
lhand -10.0756 44.6634
lfingers 7.12502
lthumb 15.9108 74.0298
rfemur -43.9634 -10.5971 8.03489
rtibia 38.0922
rfoot -3.4614 -16.0663
rtoes -7.4588
lfemur 1.56543 5.75923 -18.1685
ltibia 15.0471
lfoot -15.0507 18.1865
ltoes -31.4383
511
root 3.94041 17.1736 -7.19564 11.0137 -16.3775 3.91193
lowerback 7.00039 -3.08239 -6.3359
upperback 1.43466 -4.49094 3.10463
thorax -1.68589 -2.23178 7.16161
lowerneck -12.4516 -13.7409 -16.6135
upperneck -0.219719 -17.3642 21.3301
head 5.4512 -7.9257 7.51383
rclavicle -1.51076e-014 -4.53229e-014
rhumerus -43.5669 -22.0595 -60.3817
rradius 39.0397
rwrist -1.12521
rhand -22.4378 18.075
rfingers 7.12502
rthumb 3.98604 -11.8675
lclavicle -1.51076e-014 -4.53229e-014
lhumerus -28.8539 22.977 63.4948
lradius 35.4263
lwrist -7.95506
lhand -8.62176 44.7911
lfingers 7.12502
lthumb 17.3105 74.0402
rfemur -43.9574 -10.5503 8.59573
rtibia 38.1497
rfoot -3.59703 -15.0285
rtoes -8.71223
lfemur 1.94912 5.68468 -17.7765
ltibia 15.207
lfoot -14.1805 18.3758
ltoes -31.3591
